
<svg width="250" height="250" viewBox="0 0 250 250" fill="none" xmlns="http://www.w3.org/2000/svg">
<g clip-path="url(#clip0_947_1325)">
<path d="M196.739 162.486C196.611 149.894 194.007 141.655 188.627 136.618C187.688 135.722 186.663 135.039 185.681 134.398C180.088 130.898 173.427 130.813 168.048 131.239C167.578 131.239 167.109 131.325 166.682 131.368C165.187 131.496 163.608 131.709 161.942 131.922C160.277 132.179 158.57 132.435 156.648 132.733L154.087 133.16C150.97 133.673 147.81 134.227 144.48 134.697C137.521 135.679 128.341 136.575 118.948 134.91C114.337 134.099 109.94 132.605 105.883 130.941C102.212 129.404 98.8389 127.696 95.9355 126.16C93.3311 124.794 90.7695 123.3 88.2077 121.848C86.0302 120.611 83.8954 119.415 81.8034 118.305C79.7539 117.196 77.7046 116.171 75.7405 115.232C75.4419 115.104 75.143 114.891 74.8441 114.763C70.1475 112.671 63.4016 110.238 56.5705 111.689C55.4604 111.903 54.3503 112.244 53.2402 112.671C46.1527 115.574 40.8158 122.404 36.2474 134.569C29.5443 156.894 34.0272 176.615 49.1414 191.641C64.8534 207.221 87.9087 214.008 104.475 216.911C111.562 218.149 120.016 219.173 128.939 219.173C140.851 219.173 153.617 217.38 165.102 212.087C184.443 203.166 195.415 186.134 196.739 162.87V162.486L196.739 162.486Z" fill="#F5E5C9"/>
<path d="M93.1173 58.1605C94.3554 57.7764 95.6789 57.5202 96.96 57.2215L96.9734 57.2187C94.7129 54.7455 92.3266 52.144 91.4313 48.9038C91.2176 48.0501 91.0469 47.1963 91.1749 46.3426C91.3031 45.1473 91.9008 44.0802 92.4559 43.013C93.7794 40.4092 94.8895 37.293 93.694 34.6039C92.7973 32.5976 90.748 31.2743 88.6133 30.9327C86.4785 30.5913 84.2583 31.1036 82.2517 32.0426C79.0921 33.5366 76.1036 35.7136 73.9262 38.4883C71.7487 41.2629 70.3397 44.2084 69.3578 47.4525C68.8454 49.1599 68.5038 50.8673 68.3329 52.6175C67.6091 59.0453 68.9666 65.6428 71.5993 71.5636C77.4485 65.2463 84.8774 60.679 93.1173 58.1605L93.1173 58.1605Z" fill="#A6A6A6"/>
<path d="M185.29 91.4096C185.488 91.1585 193.689 80.7277 195.128 74.2907C196.738 67.0915 195.412 59.0731 190.832 53.3367C189.187 51.2873 187.055 49.4581 184.44 48.92C183.009 48.5988 181.454 48.7818 180.126 49.3673C179.461 49.6601 178.873 50.0867 178.363 50.6051C178.085 50.8841 177.935 51.1723 177.7 51.4544C177.605 51.5757 177.514 51.6545 177.419 51.7758C177.279 51.9364 177.217 52.1887 177.162 52.3559C176.471 54.1447 176.112 56.0869 176.184 57.9757C176.175 58.1035 176.165 58.2311 176.198 58.3622C176.285 59.4817 176.501 60.6108 176.205 61.7014C176.01 62.5857 175.484 63.317 174.916 64.0448C172.802 66.6403 166.612 69.4013 166.441 69.477C167.47 70.1416 168.535 70.7973 169.5 71.5641C181.09 80.778 185.282 91.3845 185.29 91.4096Z" fill="#A6A6A6"/>
<path d="M231.772 101.275C226.603 95.1795 217.19 92.139 209.59 91.1571C205.492 90.6022 200.966 90.4313 195.757 90.6447H195.33C191.038 90.8997 187.762 91.1546 185.29 91.4096C185.282 91.385 181.09 80.7782 169.499 71.5641C168.45 70.7299 167.279 70.0274 166.169 69.3016C161.857 66.6125 157.118 64.5208 151.952 63.2829C156.392 61.49 162.882 61.2766 165.443 61.4046C166.681 61.4901 167.877 60.6791 168.304 59.4837C168.731 58.2887 168.304 56.9226 167.279 56.1969C157.459 49.1538 147.725 50.5623 141.662 53.3369C140.808 48.7694 139.058 44.6289 138.972 44.373C138.631 43.5617 137.905 42.9215 137.051 42.708C136.154 42.4519 135.258 42.6653 134.575 43.1776C131.842 45.2692 130.177 48.6842 129.152 51.5442C118.479 43.0922 107.847 45.5253 107.378 45.6108C106.225 45.8669 105.371 46.8486 105.2 48.0012C105.03 49.1538 105.585 50.3062 106.609 50.904C109 52.2697 112.16 54.4467 114.55 56.5812C108.531 55.6421 102.596 55.9834 96.9602 57.2215C95.6791 57.5202 94.3556 57.7763 93.1175 58.1604C84.8774 60.6791 77.4483 65.2465 71.5991 71.5641C69.1654 70.2835 65.5362 68.7041 60.1993 66.6978C55.503 64.9903 51.148 63.795 46.9212 62.984C40.0044 61.6607 29.8857 60.7643 22.1152 67.8076C17.9311 71.4359 15.2839 77.1986 15.0705 82.7905C14.8997 87.4433 16.4367 91.7119 19.4254 94.7853C24.3353 99.9505 32.106 101.188 39.4921 101.188C43.292 101.188 47.0065 100.847 50.2086 100.591L51.4042 100.505C54.222 100.292 56.6131 100.036 58.6624 99.7371L56.5276 111.689L56.5264 111.699L56.5704 111.689C63.4015 110.238 70.1474 112.671 74.844 114.763C75.1428 114.891 75.4417 115.104 75.7404 115.232C77.7045 116.171 79.7537 117.196 81.8033 118.305C83.8953 119.415 86.03 120.611 88.2075 121.848C90.7693 123.3 93.3309 124.794 95.9353 126.16C98.8388 127.696 102.212 129.404 105.883 130.941C109.939 132.605 114.337 134.099 118.948 134.91C128.341 136.575 137.521 135.679 144.48 134.697C147.81 134.227 150.97 133.673 154.086 133.16L156.648 132.733C158.57 132.435 160.277 132.179 161.942 131.922C163.608 131.709 165.187 131.496 166.681 131.368C167.109 131.325 167.578 131.239 168.048 131.239C173.406 130.814 180.036 130.899 185.616 134.359C185.629 134.335 188.157 120.013 188.157 120.013C189.822 120.739 191.701 121.507 193.964 122.361L194.732 122.66C200.966 125.093 209.548 128.422 217.361 128.422C220.392 128.422 223.338 127.91 225.943 126.672C229.828 124.837 232.646 121.464 233.841 117.196C235.25 112.244 235.977 106.233 231.772 101.275L231.772 101.275Z" fill="#7C4EC4"/>
<path d="M208.565 100.463C206.046 100.121 200.667 99.8651 197.806 101.402C194.946 102.896 186.065 109.213 199.898 115.446C204.509 117.281 211.725 120.312 216.507 117.964C220.947 115.787 221.459 109.811 219.026 105.969C216.507 101.957 212.878 101.103 208.523 100.505L208.565 100.463V100.463Z" fill="#F5EAD7"/>
<path d="M43.292 71.9055C39.0225 71.1372 35.308 70.7956 31.5509 74.3386C28.0071 77.711 26.5981 84.2419 30.0564 87.9557C33.8563 91.968 41.7123 91.0716 46.6651 90.5595C61.8645 88.2118 55.503 78.8208 53.1973 76.3022C51.0198 73.7838 45.8111 72.3751 43.292 71.9482V71.9055V71.9055Z" fill="#F5EAD7"/>
<path d="M93.5446 110.025C91.4099 109.64 90.0436 107.591 90.5134 105.457C90.8976 103.323 92.9468 101.957 95.0818 102.426C97.2166 102.811 98.5829 104.859 98.113 106.994C97.7289 109.128 95.6794 110.409 93.5446 110.025V110.025Z" fill="#231F20"/>
<path d="M81.8034 118.305C83.8954 119.415 86.0302 120.611 88.2077 121.848C90.7695 123.3 93.3311 124.794 95.9354 126.16C98.8301 127.692 102.192 129.394 105.85 130.927L105.841 130.855C109.641 120.056 117.155 92.3097 95.5941 87.8275C78.5158 84.3699 75.9542 111.092 75.6981 115.147L75.6777 115.202C75.6987 115.211 75.7196 115.223 75.7406 115.232C77.7046 116.171 79.7539 117.196 81.8034 118.305L81.8034 118.305Z" fill="white"/>
<path d="M154.086 133.16L156.648 132.733C158.569 132.435 160.277 132.179 161.942 131.923C163.581 131.712 165.136 131.503 166.609 131.375L166.596 131.282C167.407 128.508 175.007 101.188 157.288 98.5418C135.343 95.3404 133.037 124.41 132.952 135.722L132.92 135.785C137.147 135.635 141.079 135.177 144.48 134.697C147.81 134.227 150.969 133.673 154.086 133.16V133.16Z" fill="white"/>
<path d="M88.2074 121.848C90.7693 123.3 93.3309 124.794 95.9352 126.16C97.0983 126.775 98.3397 127.418 99.6424 128.067C100.193 127.644 100.761 127.107 100.947 126.862C103.746 123.164 105.542 118.228 105.936 113.225C106.379 107.594 105.044 101.879 101.364 97.7532C99.3636 95.5104 96.4326 93.9716 93.4323 94.146C89.4804 94.3758 86.2306 97.4318 84.1642 100.808C81.8901 104.524 80.6022 108.837 80.4669 113.192C80.4316 114.329 80.3685 116.271 80.6967 117.717C81.0653 117.912 81.434 118.106 81.8032 118.305C83.8952 119.415 86.0299 120.611 88.2074 121.848L88.2074 121.848Z" fill="#231F20"/>
<path d="M87.7808 151.942C91.1964 152.54 94.484 150.235 95.0817 146.82C95.6793 143.405 93.3738 140.118 89.9583 139.521C86.5425 138.923 83.2552 141.228 82.6574 144.643C82.0596 148.058 84.365 151.345 87.7808 151.942Z" fill="#5E3883"/>
<path d="M145.676 148.912C142.26 148.314 138.972 150.619 138.375 154.034C137.777 157.449 140.082 160.736 143.498 161.333C146.914 161.931 150.201 159.626 150.799 156.211C151.397 152.796 149.091 149.509 145.676 148.912H145.676Z" fill="#5E3883"/>
<path d="M148.28 182.207C146.657 181.823 145.889 180.329 145.633 179.603C144.992 177.981 143.242 177.085 141.662 177.554C140.723 177.768 139.954 178.365 139.527 179.219C139.1 180.03 139.058 181.012 139.442 181.908C139.484 182.036 139.613 182.292 139.741 182.634C134.446 185.707 122.108 191.47 106.865 189.08C92.6051 186.817 85.2615 177.17 82.4862 172.56C83.1267 171.877 83.4684 171.322 83.5111 171.237C84.493 169.785 84.0662 167.694 82.4437 166.584C80.8638 165.645 78.8572 166.114 77.9178 167.736C77.9178 167.822 76.8932 169.487 74.8866 169.273C73.99 169.273 73.0505 169.614 72.4103 170.297C71.8552 170.895 71.5563 171.706 71.599 172.517C71.5136 174.139 72.7091 175.591 74.3743 175.847H74.8439C75.3989 175.847 75.9967 175.847 76.5515 175.761C79.4975 181.055 87.8233 192.494 105.926 195.696C109 196.251 111.946 196.464 114.764 196.464C128.896 196.464 139.741 190.531 144.309 187.543C145.078 187.97 145.889 188.269 146.743 188.482L147.383 188.567C148.963 188.567 150.201 187.671 150.799 185.963C151.055 184.341 150.03 182.719 148.28 182.207V182.207Z" fill="#AE8BBC"/>
<path d="M154.086 133.16L156.648 132.733C158.038 132.517 159.316 132.324 160.547 132.136C161.601 130.355 162.547 128.273 163.223 126.117C166.084 116.385 162.967 106.908 156.307 104.902C149.646 102.853 141.876 109.128 138.93 118.861C137.06 124.978 137.688 131.116 140.051 135.256C141.605 135.086 143.088 134.893 144.48 134.697C147.81 134.227 150.97 133.673 154.086 133.16H154.086Z" fill="#231F20"/>
<path d="M156.093 116.811C156.477 114.677 154.983 112.714 152.848 112.415C150.713 112.031 148.749 113.525 148.45 115.659C148.066 117.793 149.561 119.671 151.695 120.056C153.83 120.44 155.794 118.946 156.093 116.811V116.811Z" fill="white"/>
<path d="M95.0814 102.426C92.9891 101.957 90.8971 103.323 90.5129 105.457C90.0431 107.549 91.4094 109.64 93.5441 110.024C95.6789 110.409 97.7284 109.128 98.1125 106.994C98.5824 104.902 97.2161 102.811 95.0814 102.426V102.426Z" fill="white"/>
</g>
<defs>
<clipPath id="clip0_947_1325">
<rect width="219.885" height="188.347" fill="white" transform="translate(15.0576 30.8266)"/>
</clipPath>
</defs>
</svg>
